<?xml version="1.0" encoding="utf-8"?>
<!-- Generator: Adobe Illustrator 24.2.0, SVG Export Plug-In . SVG Version: 6.00 Build 0)  -->
<svg version="1.1" id="Layer_1" xmlns="http://www.w3.org/2000/svg" xmlns:xlink="http://www.w3.org/1999/xlink" x="0px" y="0px"
	 viewBox="0 0 585.99 129.43" style="enable-background:new 0 0 585.99 129.43;" xml:space="preserve">
<style type="text/css">
	.st0{fill:#FFFFFF;}
	.st1{fill:#2D4859;}
	.st2{fill:#7FBE75;}
	.st3{fill:#EDCC64;}
	.st4{fill:#B19FFF;}
	.st5{fill:#39C7FF;}
	.st6{fill:#FFAC3E;}
	.st7{fill:#CEA229;}
	.st8{fill:#8D82E0;}
	.st9{fill:#29B7E2;}
	.st10{fill:#E5891A;}
	.st11{fill:#F5F5F5;}
	.st12{fill:none;}
	.st13{fill:#575756;}
	.st14{fill:none;stroke:#C6C6C5;stroke-miterlimit:10;}
	.st15{fill:#1D1D1B;}
	.st16{fill:none;stroke:#ECECEC;stroke-miterlimit:10;}
</style>
<g>
	<g>
		<g>
			<path class="st0" d="M6.26,91.39C4.23,85.7,3.18,79.65,3.18,73.43c0-12.71,4.43-24.74,12.55-34.34c-0.48-0.84-0.93-1.7-1.34-2.58
				C5.73,46.36,0.47,59.28,0.47,73.43c0,6.64,1.16,13.02,3.29,18.93c0.27-0.12,0.55-0.26,0.8-0.37C5.12,91.75,5.69,91.57,6.26,91.39
				z"/>
		</g>
		<g>
			<path class="st0" d="M92.12,30.22c-0.06,0.2-0.13,0.39-0.18,0.59c-0.57,2.12-0.82,4.29-1.02,6.55c0.51,1,0.61,2.12,2.13,0.9
				c-0.25-0.21-0.38-0.67-0.52-0.84c2.16,0.01,3.67,0.9,4.6,2.77c2.07,4.19-3.02,0.87-3.27,3.05c-1.25-0.4-1.81-1.41-2.9-2.01
				c-0.11-0.06-0.25-0.1-0.39-0.13c-0.19,1.6-0.45,3.33-0.84,5.41c-0.41,2.2-1.48,4.29-3.29,6.4c-1.31,1.52-2.79,3.25-4.18,4.96
				c-0.18,0.22-0.35,0.45-0.52,0.68c2.11-0.8,4.38-1.5,6.83-1.84c5.83-0.8,11.54,2.25,14.23,7.58c1.31,2.59,1.4,5.2,1.31,7.62
				c-0.02,0.57,0.07,1.22,0.19,1.99l0,0.01c0,0,0,0.01,0,0.01l0.11,0.71l-0.01,0.01c0.01,0.07,0.02,0.13,0.03,0.2h0l0,0.01
				l0.05,0.37h0c0,0.02,0.01,0.05,0.01,0.07l0.3,6.26l-6.45-2.5c-0.19,1.38-0.52,2.68-0.82,4.07c-0.32,1.47-1.26,2.59-1.21,4.15
				c0.05,1.44,0.67,2.6,0.48,4.14c-0.17,1.36-0.25,2.98-0.61,4.32c-0.36,1.36-1.33,2.57-1.73,3.97c-0.39,1.33-0.28,3.05,0.65,4.14
				c0.97,1.14,1.93,0.49,3.06-0.37c2.24-1.7,3.26-4.58,4.74-6.88c1.52-2.34,3.05-4.48,4.06-6.9c0.21-0.51,0.47-1.02,0.74-1.53
				c-2.46,8.59-7.05,16.47-13.55,22.96c-10.07,10.07-23.45,15.61-37.69,15.61c-8.05,0-15.82-1.77-22.88-5.13
				c-0.03,0.55-0.07,1.09-0.13,1.61c-0.05,0.41-0.15,0.8-0.28,1.15c7.09,3.25,14.98,5.07,23.29,5.07
				c30.93,0,56.01-25.07,56.01-56.01C112.48,56.03,104.55,40.49,92.12,30.22z"/>
		</g>
		<g>
			<path class="st0" d="M39.59,23.13c0.4,0.38,0.8,0.75,1.19,1.13c0.03,0.02,0.05,0.05,0.08,0.07c0.52-0.48,1.03-0.96,1.77-1.1
				c1.42-0.27,2.44,2.03,4.19,0.69c1-0.76,0.54-1.21,0.17-1.94c-0.1-0.2-0.6-0.64-0.74-0.82c-0.02-0.02-0.02-0.04-0.03-0.06
				c1.36-0.26,2.73-0.47,4.12-0.62c0.26,0.76,0.83,1.67,1.13,2.2c0.23,0.38,0.65,0.64,0.83,1.06c0.21,0.48-0.28,1.08,0.33,1.4
				c0.94,0.5,3.67-2.76,4.32-3.29c0.83-0.67,1.35-1.04,1.15-1.69c4.39,0.13,8.68,0.79,12.81,1.95c0.33,0.41,0.67,0.84,1,1.31
				c0.28,0.39,0.53,0.76,0.8,1.1c0.41-0.59,0.86-1.16,1.38-1.68c0.99-0.99,2.06-1.43,3.22-1.33c0.01-0.02,0.02-0.03,0.03-0.05
				c-6.45-2.6-13.5-4.04-20.88-4.04c-6.77,0-13.25,1.2-19.25,3.4C37.97,21.59,38.77,22.36,39.59,23.13z"/>
		</g>
		<g>
			<path class="st0" d="M14.19,43.13c-0.3,1.23-0.12,2.72-0.55,3.94c-0.55,1.55-1.54,2.48-1.36,4.28c2.17,0.64,1.23-3.2,3.05-3.4
				c0.58,1.44,0.2,4.11,0.03,5.67c-0.23,2.15-0.65,2.69,0.64,4.53c1.02,1.46,1.36,2.44,3.33,2.68c1.81,0.21,2.56,1.03,3.31,2.77
				c0.44,0.09,0.83,0.19,1.15,0.31c0.01-0.17,0.01-0.34,0.04-0.52c0.22-1.25,0.84-2.28,1.85-3.08c-0.39-0.32-0.79-0.66-1.19-0.99
				c-0.21-0.07-0.43-0.14-0.65-0.21c-0.02-0.11,0-0.22,0.01-0.32c-0.71-0.58-1.42-1.14-2.11-1.75c-0.03-0.03-0.06-0.06-0.09-0.09
				c-0.72,0.68-1.41,1-2.02,0.12c-0.41-0.59-0.38-1.61-0.16-2.69c-0.66-1.03-1.16-2.15-1.49-3.34c-0.18-0.65-0.26-1.35-0.24-2.05
				c0.04-1.74,0.81-3.16,2.07-4.01c-1.48-1.76-2.78-3.64-3.91-5.59c-0.02,0.02-0.04,0.04-0.06,0.06
				C15.08,40.46,14.48,41.99,14.19,43.13z"/>
		</g>
		<g>
			<path class="st0" d="M41.13,100.35c-0.5,0.59-1.05,1.22-1.61,1.85c0.32,2.19,1.08,4.11,1.4,6.3c0.41,2.86,1.25,5.52,1.86,8.28
				c0.45,2.08,2.25,5.23,4.85,4.81c0.18-0.99-0.84-1.76-0.97-2.73c-0.12-0.89,0.13-1.81-0.04-2.76c-0.35-1.88-0.33-2.99,0.91-4.62
				c0.44-0.58,1.05-1.06,1.5-1.63c0.88-1.12,0.21-0.79,0.17-2.02c-0.05-1.54,0.42-0.78,1.35-1.26c0.48-0.25,1.01-1,1.38-1.38
				c0.2-0.21,0.43-0.43,0.66-0.65c-2.72-0.17-5.4-0.9-7.97-2.22C43.42,101.69,42.25,101.01,41.13,100.35z"/>
		</g>
		<g>
			<path class="st0" d="M39.31,77.01l0.09-0.07c-0.76-0.38-1.44-0.8-2.03-1.18c-0.28-0.18-0.59-0.4-0.89-0.73
				c-1.14-1.26-1.64-2.36-1.5-3.42c-0.39-0.1-0.79-0.2-1.18-0.31c-0.87-0.23-1.73-0.45-2.6-0.68c-0.18-0.05-0.4-0.12-0.61-0.18
				c-0.71,1.72-1.92,3.54-2.26,4.41c-0.86,2.24-0.99,5.52,1.13,7.12c0.61,0.46,1.23,0.81,1.73,1.27c0.43-0.32,0.86-0.63,1.31-0.98
				C34.77,80.51,37.04,78.76,39.31,77.01z"/>
		</g>
		<g>
			<g>
				<g>
					<path class="st6" d="M59.05,69.99c-0.21-0.2-0.43-0.38-0.62-0.6c-2.24-2.63-3.17-5.79-3.64-9.11
						c-0.5-3.56-0.87-7.13-1.39-10.68c-0.34-2.32-1.46-4.33-2.82-6.22c-2.29-3.2-5.18-5.81-8.22-8.27
						c-2.83-2.29-5.73-4.51-8.18-7.23c-3.95-4.39-7.12-9.26-8.87-14.96c-0.17-0.54-0.28-1.1-0.41-1.66
						c0.08-0.04,0.16-0.08,0.24-0.11c0.17,0.27,0.38,0.52,0.52,0.8c1.55,3.19,3.22,6.32,5.17,9.29c2.7,4.11,6.08,7.57,9.93,10.64
						c2.92,2.33,5.7,4.82,8.48,7.31c1.79,1.6,3.19,3.54,4.39,5.63c1.06,1.84,1.53,3.81,1.68,5.9c0.21,3.01,0.32,6.03,0.66,9.02
						c0.37,3.2,1.44,6.23,2.83,9.13c0.16,0.32,0.29,0.65,0.44,0.98C59.19,69.9,59.12,69.94,59.05,69.99z"/>
				</g>
			</g>
			<g>
				<g>
					<path class="st6" d="M93.17,66.43c1.05-0.09,1.93-0.05,2.68,0.43c0.3,0.19,0.6,0.64,0.61,0.98c0,0.29-0.36,0.77-0.65,0.84
						c-0.36,0.09-0.93-0.01-1.18-0.26C94.1,67.88,93.71,67.18,93.17,66.43z"/>
				</g>
			</g>
			<g>
				<g>
					<path class="st6" d="M77.9,61c0.58-1.69,1.45-3.22,2.57-4.59c1.38-1.69,2.79-3.35,4.21-5c1.34-1.56,2.39-3.28,2.77-5.31
						c0.42-2.26,0.78-4.53,0.98-6.81c0.26-3.05,0.47-6.08,1.27-9.07c1.26-4.7,3.1-9.13,5.65-13.27c0.7-1.13,1.56-2.2,2.49-3.15
						c1.39-1.42,2.92-2.72,4.39-4.07c0.2-0.19,0.42-0.38,0.58-0.6c0.71-0.98,0.35-2.09-0.79-2.52c-0.86-0.32-1.73-0.34-2.59-0.05
						c-5.63,1.85-9.6,5.53-12.05,10.9c-0.17,0.37-0.36,0.72-0.55,1.08c-0.08,0.03-0.16,0.06-0.25,0.09
						c-0.11-0.18-0.2-0.37-0.32-0.54c-0.79-1.03-1.71-1.31-2.85-0.67c-0.71,0.4-1.38,0.95-1.93,1.56c-1.18,1.31-1.89,2.91-2.39,4.6
						c-0.09,0.3-0.22,0.59-0.35,0.93c-0.24-0.12-0.4-0.19-0.56-0.28c-1.01-0.59-1.6-0.55-2.42,0.27c-0.49,0.49-0.94,1.04-1.31,1.62
						c-1.59,2.48-2.23,5.26-2.5,8.16c-0.02,0.26-0.06,0.52-0.08,0.78c-0.06,0.02-0.12,0.04-0.18,0.06c-0.28-0.35-0.56-0.7-0.85-1.05
						c-0.55-0.67-1.08-0.77-1.84-0.37c-0.85,0.45-1.33,1.21-1.7,2.05c-0.99,2.25-1.62,4.58-1.82,7.04
						c-0.06,0.72-0.17,1.44-0.28,2.36c-0.41-0.55-0.66-0.94-0.97-1.27c-0.61-0.67-1.52-0.55-1.79,0.28
						c-0.38,1.18-0.82,2.39-0.91,3.61c-0.14,1.84-0.12,3.72,0.03,5.56c0.22,2.71,0.34,5.41,0.16,8.13
						c-0.01,0.19-0.04,0.37-0.06,0.55c-0.21-0.21-0.33-0.41-0.37-0.63c-0.38-1.84-0.84-3.66-1.08-5.52
						c-0.36-2.76-0.56-5.54-0.85-8.31c-0.42-3.96-2.17-7.26-5.17-9.86c-1.35-1.17-2.78-2.24-4.2-3.32
						c-3.64-2.76-7.5-5.24-10.81-8.42c-2.34-2.25-4.83-4.38-6.58-7.15c-1.48-2.33-2.91-4.69-4.21-7.12
						c-1.16-2.16-2.1-4.45-3.14-6.67c-0.86-1.83-1.95-3.47-3.65-4.66c-0.71-0.5-1.83-0.47-2.22,0.3c-0.35,0.7-0.64,1.54-0.62,2.3
						c0.04,1.83,0.29,3.65,0.45,5.47c0.03,0.3,0.05,0.61,0.09,1.04c-0.44-0.21-0.75-0.36-1.06-0.5c-0.89-0.39-1.41-0.15-1.57,0.78
						c-0.1,0.54-0.12,1.11-0.1,1.66c0.08,2.43,0.86,4.68,1.89,6.85c0.1,0.2,0.12,0.45,0.2,0.78c-0.29-0.11-0.44-0.17-0.59-0.23
						c-1.98-0.73-3.02-0.08-2.93,2.03c0.05,1.18,0.27,2.42,0.73,3.51c0.78,1.85,1.8,3.6,2.71,5.4c0.08,0.15,0.14,0.31,0.25,0.54
						c-0.75-0.19-1.39-0.4-2.04-0.5c-1.11-0.17-1.79,0.38-1.64,1.48c0.16,1.13,0.45,2.28,0.9,3.33c1.83,4.19,4.4,7.89,7.6,11.15
						c0.16,0.17,0.28,0.38,0.5,0.69c-0.61,0-1.05-0.02-1.48,0c-1.56,0.08-2.54,1.06-2.58,2.62c-0.01,0.46,0.04,0.93,0.16,1.37
						c0.53,1.93,1.59,3.59,3.06,4.89c1.96,1.74,4.04,3.33,6.08,4.98c0.25,0.2,0.5,0.39,0.87,0.68c-0.7,0.16-1.27,0.22-1.79,0.43
						c-1.12,0.44-2.09,1.11-2.31,2.39c-0.22,1.27,0.67,2,1.54,2.69c1.23,0.96,2.65,1.51,4.15,1.91c1.91,0.5,3.82,0.99,5.72,1.5
						c0.34,0.09,0.66,0.24,1.05,0.39c-0.2,0.22-0.28,0.33-0.38,0.42c-1.14,1.05-1.31,1.34,0,2.78c0.12,0.14,0.28,0.24,0.44,0.34
						c1.51,0.98,3.08,1.8,4.89,2.08c0.21,0.03,0.41,0.11,0.75,0.2c-0.33,0.26-0.55,0.42-0.76,0.59c-3.19,2.47-6.39,4.93-9.58,7.4
						c-2.59,2.01-5.29,3.86-8.25,5.28c-4.01,1.92-8.31,2.69-12.7,3.13c-2.56,0.26-5.12,0.61-7.53,1.62C3.49,94.95,1.7,96,0.45,97.84
						c-0.66,0.97-0.4,1.95-0.41,2.94c0,0.18,0.24,0.39,0.41,0.53c0.96,0.79,2.07,0.98,3.28,0.73c0.3-0.06,0.61-0.1,0.91-0.15
						c0.09,0.11,0.18,0.23,0.26,0.34c-0.21,0.09-0.47,0.14-0.63,0.28c-1.32,1.12-2.29,2.51-2.74,4.19c-0.21,0.77-0.28,1.61-0.21,2.4
						c0.11,1.25,0.82,1.77,2.06,1.75c0.34,0,0.68,0,1.13,0c-0.24,0.56-0.44,1.05-0.64,1.54c-0.64,1.59-0.82,3.18-0.06,4.79
						c0.61,1.29,1.92,1.85,3.25,1.31c0.52-0.22,0.98-0.61,1.46-0.92c0.24-0.16,0.47-0.32,0.73-0.5c0.06,0.16,0.1,0.22,0.1,0.29
						c0,0.16-0.02,0.32-0.03,0.48c-0.16,1.95,0.3,3.73,1.52,5.28c0.8,1.02,1.94,1.38,3.1,0.8c0.7-0.35,1.26-0.97,1.88-1.49
						c0.15-0.12,0.25-0.3,0.44-0.53c0.13,0.3,0.23,0.48,0.28,0.68c0.56,1.93,1.83,3.24,3.56,4.16c0.18,0.1,0.36,0.21,0.52,0.35
						c0.29,0.26,2.23,0.5,2.49,0.23c0.79-0.8,1.64-1.59,1.6-2.88c-0.01-0.43,0.07-0.85,0.12-1.46c0.25,0.3,0.36,0.46,0.5,0.6
						c0.61,0.59,1.17,1.28,1.87,1.75c1.25,0.85,2.65,0.47,3.39-0.84c0.27-0.48,0.52-1.02,0.58-1.55c0.12-1.05,0.2-2.13,0.1-3.18
						c-0.31-3.28-0.26-6.53,0.64-9.73c0.93-3.33,2.77-6.1,5.13-8.56c0.83-0.87,1.61-1.79,2.38-2.71c0.41-0.49,0.77-1.03,1.09-1.46
						c1.77,1.02,3.43,2.05,5.15,2.94c4.43,2.28,9.1,2.64,13.77,1.07c2.14-0.72,4.17-1.93,6.08-3.18c3.6-2.35,6.54-5.47,9.46-8.59
						c1.68-1.8,3.24-3.7,4.96-5.46c1.79-1.84,3.66-3.62,5.58-5.33c0.93-0.83,2.29-1.15,2.86-2.42c0.02-0.05,0.11-0.08,0.17-0.12
						c0.06,0.03,0.13,0.05,0.19,0.08c2.51,1.58,5.13,1.74,7.83,0.57c0.9-0.39,1.58-0.45,2.3-0.1l2.78,1.21l0.98,0.43l-0.16-1.08
						l-0.26-1.77c0,0,0,0,0,0c-0.02-0.13-0.04-0.27-0.06-0.4l-0.13-0.9l0,0c-0.12-0.81-0.24-1.63-0.21-2.44
						c0.09-2.25,0-4.39-1.06-6.49c-2.2-4.38-6.98-6.99-11.84-6.32c-2.76,0.38-5.36,1.3-7.92,2.34c-1.26,0.51-2.49,1.1-3.89,1.72
						c0.12-0.39,0.17-0.68,0.28-0.93C77.52,61.74,77.76,61.39,77.9,61z M101.23,74.22c0.16,0.48,0.14,0.94,0.21,1.33
						c-0.04,0.35,0.04,0.64-0.04,0.85c-0.12,0.32-0.32,0.47-0.7,0.28c-0.7-0.35-1.41-0.68-2.13-0.98c-0.72-0.3-0.93-0.81-0.43-1.4
						c0.33-0.39,0.79-0.73,1.26-0.93C100.22,73.01,100.94,73.36,101.23,74.22z M81.58,62.61c3.71-1.63,7.56-2.54,11.65-1.75
						c3.64,0.7,6.96,4.38,7.22,8.07c0.06,0.83,0.01,1.66-0.01,2.5c-0.01,0.51-0.27,0.78-0.81,0.86c-1.29,0.18-2.07,1.01-2.43,2.19
						c-0.2,0.65-0.56,1.02-1.14,1.3c-2.86,1.37-6.59,0.31-8.52-2.44c-0.31-0.45-0.63-0.89-1.03-1.3c-0.23,1,0.09,1.85,0.63,2.65
						c0.57,0.85,0.5,0.78-0.44,1.13c-0.91,0.34-1.84,0.84-2.54,1.5c-2.09,1.97-4.17,3.97-6.07,6.11c-3.16,3.56-6.23,7.2-9.81,10.35
						c-2.3,2.03-4.72,3.96-7.56,5.16c-3.58,1.51-7.31,2.18-11.22,1.3c-3.66-0.83-6.93-2.44-10-4.55c-0.34-0.24-0.72-0.42-1.08-0.63
						c-0.06,0.07-0.11,0.14-0.17,0.21c0.46,0.39,0.92,0.79,1.52,1.3c-1.29,1.63-2.38,3.32-3.78,4.7c-3.91,3.85-6.33,8.3-6.28,13.91
						c0.01,1.83,0.01,3.67-0.05,5.5c-0.02,0.66-0.19,1.34-0.43,1.95c-0.43,1.09-1.3,1.3-2.23,0.59c-1.33-1.01-2.08-2.39-2.15-4.05
						c-0.04-1.06,0.11-2.12,0.18-3.18c0.04-0.54,0.08-1.07,0.12-1.61c-0.08-0.02-0.17-0.04-0.25-0.07c-0.11,0.2-0.27,0.38-0.31,0.59
						c-0.55,2.49-1.09,4.98-1.62,7.47c-0.05,0.25-0.07,0.51-0.12,0.76c-0.23,1.09-0.91,1.78-1.86,1.91
						c-0.91,0.13-2.02-0.41-2.42-1.31c-0.28-0.64-0.46-1.37-0.52-2.07c-0.15-1.76,0.18-3.48,0.88-5.09
						c0.84-1.91,1.76-3.79,2.63-5.68c0.19-0.41,0.35-0.83,0.53-1.25c-0.06-0.04-0.13-0.09-0.19-0.13c-0.32,0.31-0.71,0.58-0.94,0.94
						c-0.97,1.5-1.93,3-2.82,4.55c-0.68,1.18-1.21,2.46-1.89,3.64c-0.44,0.78-0.95,1.56-1.57,2.19c-0.43,0.44-1.07,0.75-1.67,0.91
						c-1.02,0.27-1.9-0.31-2.22-1.31c-0.32-1.01-0.21-2.01,0.09-3.01c1.03-3.45,3.06-6.28,5.51-8.84c1.07-1.12,2.31-2.07,3.47-3.11
						c0.18-0.16,0.36-0.33,0.54-0.49c-0.03-0.07-0.07-0.13-0.1-0.2c-0.31,0.1-0.65,0.14-0.91,0.31c-2.48,1.53-4.77,3.29-6.57,5.63
						c-0.96,1.25-1.95,2.48-2.98,3.68c-1.01,1.18-2.34,1.51-3.85,1.25c-1.07-0.19-1.72-0.99-1.42-2.04c0.25-0.9,0.65-1.8,1.17-2.56
						c1.48-2.16,3.4-3.93,5.53-5.44c1.12-0.79,2.29-1.49,3.44-2.24c0.21-0.13,0.41-0.27,0.61-0.4c-0.02-0.06-0.04-0.13-0.06-0.19
						c-0.26,0.06-0.54,0.07-0.78,0.18c-2.12,0.94-4.2,1.96-6.04,3.41c-0.85,0.67-1.79,1.25-2.73,1.8c-0.66,0.38-1.44,0.63-2.09,0.09
						c-0.67-0.56-0.38-1.34-0.14-2.01c0.82-2.2,2.17-4.02,4.21-5.19c1.32-0.75,2.77-1.27,4.16-1.9c0.12-0.05,0.22-0.14,0.33-0.21
						c-0.02-0.09-0.04-0.17-0.06-0.26c-0.5,0.09-1.02,0.14-1.51,0.27c-1.48,0.39-2.93,0.89-4.43,1.2c-0.86,0.18-1.81,0.22-2.68,0.08
						c-1.31-0.21-1.67-1.28-0.84-2.32c1.15-1.43,2.75-2.25,4.48-2.65c4.35-1,8.76-1.77,13.1-2.84c3.36-0.83,6.67-1.93,9.5-4.01
						c3.46-2.54,6.84-5.18,10.27-7.76c1.76-1.32,3.55-2.61,5.33-3.9c0.11-0.08,0.23-0.14,0.34-0.2c0.06,0.05,0.11,0.08,0.11,0.11
						c0.05,2.11,1.49,3.08,3.23,3.48c1.32,0.3,2.75,0.18,4.13,0.14c0.43-0.01,0.85-0.36,1.28-0.55c-0.01-0.11-0.03-0.22-0.04-0.33
						c-0.52-0.05-1.04-0.16-1.56-0.13c-1.19,0.06-2.25-0.27-3.2-0.97c-0.86-0.63-1.41-1.41-1.15-2.55c0.14-0.62-0.08-0.87-0.75-0.86
						c-1.77,0.03-3.54,0-5.21-0.67c-0.65-0.26-1.32-0.61-1.82-1.09c-0.9-0.87-0.77-1.98,0.2-2.77c0.31-0.25,0.62-0.5,0.94-0.74
						c-0.02-0.07-0.04-0.14-0.06-0.2c-0.28-0.07-0.55-0.16-0.83-0.19c-3.01-0.36-5.96-0.96-8.73-2.23c-1-0.46-2-1.01-2.86-1.7
						c-1.31-1.05-1.03-2.32,0.59-2.75c1-0.27,2.06-0.3,3.09-0.43c0.22-0.03,0.45-0.03,0.67-0.04c0.03-0.06,0.07-0.12,0.1-0.18
						c-0.2-0.17-0.39-0.37-0.61-0.5c-2.47-1.48-4.93-3-6.92-5.12c-1.12-1.19-2.16-2.5-3.05-3.87c-0.52-0.8-0.79-1.82-0.95-2.78
						c-0.16-0.91,0.37-1.56,1.29-1.67c0.95-0.11,1.93-0.01,2.9,0.03c0.36,0.01,0.72,0.11,1.31,0.2c-0.28-0.33-0.41-0.53-0.58-0.69
						c-0.93-0.94-1.9-1.84-2.81-2.8c-2.32-2.44-4.07-5.3-5.73-8.19c-0.48-0.84-0.72-1.86-0.92-2.82c-0.29-1.34,0.35-1.91,1.68-1.54
						c0.8,0.21,1.56,0.55,2.54,0.91c-0.42-0.58-0.71-1.04-1.06-1.44c-2-2.33-3.14-5.07-3.84-8.02c-0.1-0.4-0.14-0.83-0.15-1.24
						c-0.04-1.59,0.86-2.24,2.39-1.76c0.3,0.09,0.6,0.15,1.09,0.27c-0.16-0.4-0.23-0.63-0.34-0.84c-1.12-2.15-1.86-4.39-1.71-6.85
						c0.02-0.36,0.15-0.72,0.29-1.06c0.23-0.56,0.66-0.81,1.28-0.71c0.32,0.05,0.64,0.05,1.12,0.08c-0.06-0.57-0.09-1.09-0.16-1.6
						c-0.31-2.27-0.81-4.53-0.43-6.83c0.07-0.45,0.35-0.87,0.53-1.31c0.41,0.25,0.98,0.41,1.21,0.78c1.01,1.6,1.95,3.25,2.86,4.92
						c2.08,3.8,4.01,7.7,6.23,11.41c2.97,4.96,7.41,8.57,11.87,12.12c3.14,2.5,6.3,4.97,9.36,7.57c2.74,2.33,4.56,5.24,4.94,8.91
						c0.19,1.82,0.32,3.65,0.46,5.48c0.25,3.2,0.64,6.37,1.96,9.34c0.35,0.78,0.74,1.55,1.19,2.28c1.29,2.08,3.24,2.99,5.63,3.19
						c3.05,0.26,5.83-0.51,8.49-1.92C77.33,64.7,79.42,63.56,81.58,62.61z M75.66,62.89c-0.03,0.7-0.32,1.09-0.96,1.42
						c-1.82,0.92-3.71,1.61-5.75,1.75c-1.64,0.12-3.26-0.06-4.75-0.81c-0.58-0.29-1.08-0.78-1.56-1.24
						c-0.17-0.16-0.22-0.5-0.22-0.76c0.07-4.2,0.12-8.4,0.26-12.59c0.03-1.05,0.3-2.11,0.54-3.14c0.07-0.32,0.4-0.57,0.62-0.86
						c0.29,0.23,0.64,0.41,0.87,0.69c0.28,0.35,0.47,0.77,0.69,1.16c0.08-0.01,0.16-0.02,0.24-0.02c0.1-0.37,0.2-0.74,0.28-1.11
						c0.53-2.42,0.98-4.86,1.61-7.26c0.26-1,0.82-1.97,1.41-2.84c0.69-1.02,1.39-1.03,2.34-0.25c0.28,0.23,0.56,0.46,0.93,0.77
						c0.19-0.83,0.35-1.56,0.52-2.29c0.57-2.43,1.35-4.78,2.57-6.96c0.42-0.75,1.01-1.45,1.63-2.05c0.69-0.66,1.12-0.56,1.78,0.12
						c0.2,0.21,0.43,0.39,0.77,0.68c0.19-0.66,0.36-1.18,0.49-1.71c0.39-1.59,0.95-3.1,1.83-4.49c1.27-1.99,2.81-2.31,4.75-0.94
						c0.24,0.17,0.48,0.35,0.81,0.59c0.15-0.31,0.3-0.56,0.39-0.82c1.37-4.22,4.24-7.26,7.82-9.65c1.24-0.83,2.79-1.21,4.23-1.72
						c0.51-0.18,1.24-0.32,1.48,0.3c0.1,0.27-0.38,0.89-0.73,1.19c-1,0.86-2.08,1.62-3.1,2.46c-1.5,1.24-2.67,2.76-3.67,4.42
						c-2.21,3.65-3.86,7.56-5.15,11.61c-0.72,2.27-1.44,4.56-1.91,6.89c-0.43,2.13-0.61,4.32-0.74,6.49
						c-0.23,4.09-1.7,7.6-4.5,10.59c-1.09,1.17-2.15,2.37-3.15,3.62C76.77,58.12,75.76,60.33,75.66,62.89z"/>
				</g>
			</g>
		</g>
	</g>
	<g>
		<g>
			<path class="st0" d="M165.19,103.51v-6.8h-9.54v6.8h-1.16V88.53h1.16v7.12h9.54v-7.12h1.16v14.98H165.19z"/>
			<path class="st0" d="M185.33,95.44h8.77v1.05h-8.77v5.9h9.46v1.11h-10.59V88.53h10.33v1.09h-9.2V95.44z"/>
			<path class="st0" d="M223.8,103.51l-1.65-3.68h-8.94l-1.63,3.68h-1.24l6.72-14.98h1.26l6.72,14.98H223.8z M221.7,98.76
				l-4.02-9.11l-4.02,9.11H221.7z"/>
			<path class="st0" d="M242.89,88.53v13.88h8.43v1.09h-9.58V88.53H242.89z"/>
			<path class="st0" d="M270.09,89.58h-5.41v-1.03h11.98v1.03h-5.41v13.93h-1.16V89.58z"/>
			<path class="st0" d="M304.11,103.51v-6.8h-9.54v6.8h-1.16V88.53h1.16v7.12h9.54v-7.12h1.16v14.98H304.11z"/>
			<path class="st0" d="M343.57,103.51V88.53h1.13v14.98H343.57z"/>
			<path class="st0" d="M372.7,91.42c-1.09-1.75-2.84-2.01-4.54-2.03c-1.75,0-4.54,0.64-4.54,3.04c0,1.9,2.05,2.35,4.58,2.82
				c2.89,0.56,5.88,1.07,5.88,4.3c-0.02,3.38-3.42,4.19-5.93,4.19c-2.33,0-4.98-0.96-6.14-3.25l1.03-0.51
				c0.92,1.82,3.27,2.72,5.11,2.72s4.77-0.51,4.77-3.17c0.02-2.25-2.46-2.74-4.92-3.21c-2.74-0.53-5.54-1.09-5.54-3.85
				c-0.06-3.17,3.23-4.15,5.69-4.15c2.14,0,4,0.34,5.48,2.55L372.7,91.42z"/>
			<path class="st0" d="M420.76,88.53h0.64l4.58,13.69l4.64-13.69h1.24l-5.28,15.02h-1.24l-2.37-7.02l-1.88-5.93l-1.88,5.88
				l-2.4,7.06h-1.24l-5.24-15.02h1.22l4.62,13.69L420.76,88.53z"/>
			<path class="st0" d="M449.57,95.44h8.77v1.05h-8.77v5.9h9.46v1.11h-10.59V88.53h10.33v1.09h-9.2V95.44z"/>
			<path class="st0" d="M488.04,103.51l-1.65-3.68h-8.94l-1.63,3.68h-1.24l6.72-14.98h1.26l6.72,14.98H488.04z M485.94,98.76
				l-4.02-9.11l-4.02,9.11H485.94z"/>
			<path class="st0" d="M507.13,88.53v13.88h8.43v1.09h-9.58V88.53H507.13z"/>
			<path class="st0" d="M534.33,89.58h-5.41v-1.03h11.98v1.03h-5.41v13.93h-1.16V89.58z"/>
			<path class="st0" d="M568.35,103.51v-6.8h-9.54v6.8h-1.16V88.53h1.16v7.12h9.54v-7.12h1.16v14.98H568.35z"/>
		</g>
		<g>
			<g>
				<g>
					<path class="st0" d="M176.29,66.49V52.9h-16.52v13.59h-6.34V32.87h6.34v14.17h16.52V32.87h6.29v33.61H176.29z"/>
					<path class="st0" d="M219.36,66.44H194.2c0-11.19,0-22.43,0-33.61h25.16v6.15h-18.87v7.73h18.2v5.91h-18.2v7.59h18.87V66.44z"
						/>
					<path class="st0" d="M253.88,60.1h-17.58l-2.88,6.34h-6.87l15.08-33.61h6.92l15.08,33.61h-6.92L253.88,60.1z M245.1,39.88
						l-6.24,14.31h12.49L245.1,39.88z"/>
					<path class="st0" d="M279.09,32.83v27.76h17.29v5.86h-23.63V32.83H279.09z"/>
					<path class="st0" d="M310.3,38.59h-10.66v-5.76c9.7,0,17.91,0,27.66,0v5.76h-10.66v27.85h-6.34V38.59z"/>
					<path class="st0" d="M359.81,66.49V52.9h-16.52v13.59h-6.34V32.87h6.34v14.17h16.52V32.87h6.29v33.61H359.81z"/>
					<path class="st0" d="M420.6,42.57c0,2.59-1.25,5.09-4.37,6.48c3.94,1.2,5.38,5.38,5.38,7.49c0,7.49-5.62,9.89-12.58,9.89
						c-5.33,0-10.61,0-15.94,0V32.83c5.28,0,10.61,0,15.94,0C415.65,32.83,420.6,35.8,420.6,42.57z M399.33,46.32h9.7
						c3.99,0,5.28-1.68,5.28-3.6c0-1.54-1.25-4.13-5.28-4.13h-9.7V46.32z M399.33,60.53h9.7c2.59,0,6.29-0.86,6.29-4.03
						c0-3.03-3.7-4.61-6.29-4.61h-9.7V60.53z"/>
					<path class="st0" d="M461.03,52.08c0,8.69-5.52,15.03-14.79,15.03c-8.59,0-14.74-5.14-14.74-14.65h6.24
						c0,5.76,2.79,8.69,8.5,8.69c5.76,0,8.45-3.99,8.45-9.08V38.73h-10.13v-5.91c5.47,0,10.95,0,16.47,0V52.08z"/>
					<path class="st0" d="M472.07,48.1h17.72v5.38h-17.72V48.1z"/>
					<path class="st0" d="M529.98,32.87v19.26c0,9.94-6.1,15.03-14.55,15.03c-8.07,0-14.93-4.9-14.93-15.03V32.87h6.29v19.26
						c0,6.05,3.46,9.27,8.69,9.27c5.23,0,8.21-3.51,8.21-9.27V32.87H529.98z"/>
					<path class="st0" d="M568.92,33.02L553.99,49.1l16.18,16.95v0.38h-7.83l-14.07-14.89v14.89h-6.34V32.83h6.34v14.21l12.77-14.21
						h7.88V33.02z"/>
				</g>
			</g>
			<g id="TGTp9J_22_">
				<g>
					<g>
						<path class="st0" d="M573.8,33.32c0-0.12,0-0.25,0-0.37c0.01-0.05,0.01-0.09,0.02-0.14c0.03-0.28,0.05-0.57,0.11-0.85
							c0.28-1.37,0.95-2.52,2.02-3.41c1.03-0.87,2.23-1.33,3.59-1.39c1.21-0.05,2.34,0.23,3.37,0.86c1.16,0.71,2,1.69,2.47,2.96
							c0.67,1.78,0.55,3.51-0.41,5.16c-0.96,1.65-2.41,2.61-4.29,2.92c-0.23,0.04-0.46,0.05-0.7,0.07c-0.12,0-0.25,0-0.37,0
							c-0.22-0.02-0.44-0.03-0.66-0.06c-1.38-0.21-2.57-0.82-3.53-1.85c-0.84-0.9-1.35-1.96-1.55-3.18
							C573.83,33.8,573.82,33.56,573.8,33.32z M584.55,33.06c0.01-2.55-2.15-4.73-4.79-4.7c-2.71,0.03-4.76,2.25-4.74,4.81
							c0.02,2.71,2.26,4.74,4.77,4.74C582.53,37.9,584.65,35.59,584.55,33.06z"/>
					</g>
					<g>
						<path class="st0" d="M581.27,33.9c0.59,0.77,1.17,1.54,1.76,2.31c-0.05,0-0.07,0.01-0.1,0.01c-0.56,0-1.12,0-1.67,0
							c-0.08,0-0.12-0.02-0.16-0.08c-0.49-0.65-0.99-1.29-1.47-1.94c-0.12-0.16-0.23-0.25-0.44-0.23c-0.24,0.02-0.48,0.01-0.73,0.01
							c0,0.79,0,1.56,0,2.35c-0.52,0-1.02,0-1.53,0c0-2.2,0-4.41,0-6.63c0.05,0,0.09,0,0.13,0c0.36,0,0.73,0,1.09,0
							c0.88,0.01,1.77,0,2.65,0.04c0.78,0.03,1.38,0.42,1.76,1.1c0.61,1.09,0.13,2.44-1.03,2.96
							C581.45,33.84,581.37,33.86,581.27,33.9z M578.45,32.26c0.04,0,0.08,0.01,0.11,0.01c0.68,0,1.37,0,2.05,0
							c0.05,0,0.09,0,0.14-0.01c0.16-0.03,0.27-0.12,0.33-0.27c0.06-0.14,0.03-0.28-0.07-0.39c-0.1-0.12-0.24-0.16-0.39-0.16
							c-0.69,0-1.39,0-2.08,0c-0.03,0-0.05,0-0.09,0.01C578.45,31.72,578.45,31.99,578.45,32.26z"/>
					</g>
				</g>
			</g>
		</g>
	</g>
</g>
</svg>
